<svg width="422" height="407" viewBox="0 0 422 407" fill="none" xmlns="http://www.w3.org/2000/svg">
<g clip-path="url(#clip0_0_1092)">
<path d="M203.3 386C202.121 386.281 200.912 386.415 199.7 386.4H199.1C190.7 386.1 182.9 379.5 178.1 370.7C156.8 331.5 151 307.3 143.3 280.8C141.4 274.2 141.9 267.5 144.7 262.7C145.766 260.79 147.277 259.165 149.105 257.964C150.933 256.762 153.024 256.02 155.2 255.8C155.763 255.717 156.332 255.683 156.9 255.7C165.4 255.7 174.3 262.5 177.8 271.3L214.3 360.7C218.9 372 213.9 383.6 203.3 386Z" fill="#FFB96C"/>
<path d="M199.1 386.4C190.7 386.1 182.9 379.5 178.1 370.7C156.8 331.5 151 307.3 143.3 280.8C141.4 274.2 141.9 267.5 144.7 262.7C154.2 285.7 185.4 361.2 195 378.8C196.5 381.6 197.9 384.1 199.1 386.4Z" fill="#A53A21"/>
<path d="M249.1 372.501C248.452 374.425 247.315 376.148 245.8 377.501C238.6 383.201 231.5 384.501 219.6 387.101C207.7 389.701 195.4 389.101 189.7 383.701C187.909 382.066 186.508 380.05 185.6 377.801C183.1 371.801 185.3 365.501 192.4 362.801C196.6 361.201 234.8 352.201 241.1 353.401C252 355.501 251.8 365.801 249.1 372.501Z" fill="#FFB96C"/>
<path d="M249.1 372.501C248.452 374.425 247.314 376.148 245.8 377.501C238.6 383.201 231.5 384.501 219.6 387.101C207.7 389.701 195.4 389.101 189.7 383.701C187.909 382.066 186.508 380.05 185.6 377.801C188.8 378.701 195.2 379.901 206.1 378.701C215.3 377.701 234.2 374.801 249.1 372.501Z" fill="#A53A21"/>
<path d="M239.099 354.1C227.199 358.1 228.499 366 230.299 373.7C232.099 381.4 246.899 401.2 251.399 402.2C255.899 403.2 256.199 401.4 254.999 397.7C253.799 394 245.299 381.1 245.299 381.1C245.299 381.1 254.699 393.9 258.599 397.7C262.499 401.5 265.799 401.2 265.699 397C265.499 392.8 256.199 378.7 256.199 378.7C256.199 378.7 264.399 389.5 267.799 393.2C271.199 396.9 275.699 396.3 274.099 391.3C272.599 386.3 265.799 375.4 265.799 375.4C265.799 375.4 272.399 386.4 276.799 387.5C281.199 388.6 278.499 382 273.799 373.6C269.199 365 253.899 349.1 239.099 354.1Z" fill="#A53A21"/>
<path d="M229.1 365.1C229.1 365.1 226.6 374.9 228.2 383.5C229.8 392.1 232.5 393.8 234.3 394.2C236.1 394.6 236.7 392.3 235.8 388.6C234.9 384.9 237.3 377.6 237.3 377.6C237.3 377.6 234.7 362.9 229.1 365.1Z" fill="#A53A21"/>
<path d="M182 396.5H81.1001C81.1001 396.5 67.2001 299.3 76.0001 275.4C79.1502 266.627 84.4099 258.764 91.3157 252.503C98.2215 246.243 106.561 241.777 115.6 239.5C126.5 236.7 136 236.6 144.2 238.6C166 243.8 178.1 263.7 182 285.4C187.4 315.3 182 396.5 182 396.5Z" fill="#FEC272"/>
<path d="M116.5 259C103.3 262.4 91.2001 262 85.5001 258.5C93.241 249.156 103.744 242.504 115.5 239.5C126.4 236.7 135.9 236.6 144.1 238.6C145.9 245.4 133.5 254.6 116.5 259Z" fill="#F9B35F"/>
<path d="M107.9 281.8C107.92 283.376 107.786 284.95 107.5 286.5C103.4 313.1 79.8001 377.1 79.8001 377.1C79.0118 379.495 77.7457 381.704 76.0783 383.595C74.411 385.486 72.3772 387.018 70.1001 388.1C67.8569 389.148 65.4254 389.732 62.951 389.818C60.4767 389.904 58.0105 389.49 55.7001 388.6C48.1001 385.6 44.5001 378.4 44.5001 370.5C44.5178 368.789 44.6851 367.082 45.0001 365.4C51.9001 328.1 64.2001 297.2 74.3001 275.4C78.7001 265.8 89.5001 259.8 99.0001 264.6C101.728 265.996 103.962 268.195 105.4 270.9C107.151 274.26 108.012 278.013 107.9 281.8V281.8Z" fill="#FFCD92"/>
<path d="M107.9 281.8C107.92 283.376 107.786 284.95 107.5 286.5C103.4 313.1 79.8 377.1 79.8 377.1C79.0118 379.495 77.7457 381.704 76.0783 383.595C74.411 385.486 72.3771 387.018 70.1 388.1L105.3 270.8C107.119 274.174 108.016 277.968 107.9 281.8Z" fill="#FCB765"/>
<path d="M139.4 387.9C137.2 393.3 130 393.5 130 393.5C130 393.5 109.8 394.7 92.3 394.7C74.8 394.7 57.6 394.7 50.6 386.8C49.2141 385.265 48.1589 383.461 47.5 381.5C44.9 374.2 48.2 365.5 58.6 361.1C66.1 357.9 74.7 359 84.1 359.9C93.5 360.8 111.6 365 122.1 367.8C132.7 370.5 139 373.2 139.9 383.2C140.166 384.783 139.993 386.408 139.4 387.9V387.9Z" fill="#FFCD92"/>
<path d="M139.4 387.9C137.2 393.3 130 393.5 130 393.5C130 393.5 109.8 394.7 92.3001 394.7C74.8001 394.7 57.6001 394.7 50.6001 386.8C49.2141 385.265 48.1589 383.461 47.5001 381.5C55.3001 383.9 65.8001 386.7 74.2001 387.4C97.9001 389.4 129.3 388.4 139.4 387.9Z" fill="#FCB765"/>
<path d="M160.5 371.8C160.487 373.517 160.285 375.227 159.9 376.9C157.8 385.5 146.7 392.1 129.8 393C122.3 393.4 117.2 393.4 113.8 392.6C109.4 391.5 107.7 388.9 107.3 383.5C106.8 376.6 112 370.3 115.9 367.6C127.6 359.7 138.5 359.1 148 360C156.5 360.9 160.4 365.6 160.5 371.8Z" fill="#A53A21"/>
<path d="M160.499 371.8C160.486 373.517 160.284 375.227 159.899 376.9C157.799 385.5 146.699 392.1 129.799 393C122.299 393.4 117.199 393.4 113.799 392.6C113.338 391.417 113.068 390.168 112.999 388.9C112.499 383 117.399 377.5 121.199 375.2C132.299 368.4 142.699 367.8 151.699 368.7C155.699 369 158.599 370.1 160.499 371.8Z" fill="#A53A21"/>
<path d="M173.6 389.2C173.581 390.284 173.412 391.361 173.1 392.4H118.1C117.78 391.363 117.612 390.285 117.6 389.2C117.6 379.6 130.1 371.8 145.6 371.8C161.1 371.8 173.6 379.6 173.6 389.2Z" fill="#C7DCF9"/>
<path opacity="0.55" d="M172.4 390.7C172.411 391.291 172.274 391.876 172 392.4H121.7C121.427 391.876 121.289 391.291 121.3 390.7C121.3 385.6 132.7 381.4 146.8 381.4C161 381.4 172.4 385.6 172.4 390.7Z" fill="#C7DCF9"/>
<path d="M161.5 357.099C165.1 357.499 167.6 359.799 169 364.599C170.4 369.399 170.7 376.499 169.2 378.999C167.7 381.499 164.9 382.599 161.8 380.099C158.7 377.599 157 370.599 156 367.099C154.8 362.499 153.4 356.299 161.5 357.099Z" fill="#A53A21"/>
<path d="M148.1 354.8C152 355.2 153.6 358.5 155.1 363.5C156.6 368.5 156.9 376.1 155.3 378.8C153.7 381.4 150.7 382.6 147.4 380C144.1 377.4 142.2 369.9 141.2 366.2C139.9 361.3 139.3 354 148.1 354.8Z" fill="#A53A21"/>
<path d="M152 381.3C151.177 381.458 150.329 381.413 149.527 381.169C148.726 380.925 147.996 380.489 147.4 379.9C144.1 377.3 142.3 369.8 141.2 366.1C140.1 362.1 139.5 356.4 144.2 355C143.3 357.7 143.8 361.4 144.5 364.2C145.5 368.5 147.4 377.2 150.7 380.2C151.077 380.628 151.515 380.999 152 381.3V381.3Z" fill="#A53A21"/>
<path d="M133.501 357.099C137.401 357.499 140.001 359.999 141.501 364.999C143.001 369.999 143.301 377.599 141.701 380.299C140.101 382.899 137.101 384.099 133.801 381.499C130.501 378.899 128.601 371.399 127.601 367.699C126.301 362.799 124.801 356.199 133.501 357.099Z" fill="#A53A21"/>
<path d="M137.4 382.9C136.094 382.823 134.856 382.293 133.9 381.4C130.6 378.8 128.8 371.3 127.7 367.6C126.7 363.8 125.5 359 129.2 357.4C128.9 359.9 129.6 363.1 130.3 365.7C131.5 370.2 133.6 379.4 137.3 382.7C137.3 382.9 137.3 382.9 137.4 382.9Z" fill="#A53A21"/>
<path d="M120.399 359.899C123.799 358.899 126.399 362.599 127.699 367.199C128.999 371.799 129.399 378.799 127.899 381.199C126.499 383.599 123.699 384.699 120.699 382.299C117.699 379.899 116.899 375.299 115.999 371.899C114.799 367.499 113.799 361.899 120.399 359.899Z" fill="#A53A21"/>
<path d="M124.1 383.7C122.834 383.663 121.625 383.165 120.7 382.3C117.7 379.9 116.9 375.3 116 371.9C114.9 368.1 114.1 363.4 118.1 360.9C117.931 363.653 118.167 366.416 118.8 369.1C119.7 373.7 120.4 380 123.8 383.4L124.1 383.7Z" fill="#A53A21"/>
<path d="M165.7 381.4C165.005 381.434 164.31 381.328 163.657 381.087C163.005 380.847 162.407 380.477 161.9 380C158.8 377.5 157.1 370.5 156.1 367C155.1 363.3 153.9 358.5 157.9 357.3C157.988 359.629 158.323 361.942 158.9 364.2C159.9 368.7 161.8 377.7 165 380.9C165.3 381.1 165.5 381.3 165.7 381.4Z" fill="#A53A21"/>
<path d="M117.7 135.5C117.7 135.5 127 131.7 133.3 144.3C139.6 157 132.8 165.1 132.8 165.1C132.8 165.1 126.6 146.8 117.7 135.5Z" fill="#A53A21"/>
<path d="M124.1 251.4C121.731 252.617 119.058 253.113 116.411 252.829C113.763 252.545 111.256 251.492 109.2 249.8L103.7 237.9L93.8 216.5C108.7 213.3 121.7 210.8 121.7 210.8L124 220.3L128.3 238C128.1 238.1 132.9 247.4 124.1 251.4Z" fill="#A53A21"/>
<path d="M123.9 220.4C122.562 222.428 121.092 224.365 119.5 226.2C115.2 231.3 109 235.2 103.6 237.9L93.7001 216.5C108.6 213.3 121.6 210.8 121.6 210.8L123.9 220.4Z" fill="#A53A21"/>
<path d="M115.715 218.864C138.002 205.335 142.663 172.281 126.125 145.036C109.586 117.791 78.1117 106.672 55.8242 120.201C33.5367 133.73 28.876 166.784 45.4143 194.029C61.9526 221.274 93.4272 232.393 115.715 218.864Z" fill="#A53A21"/>
<path d="M126.3 209.3C123.333 213.047 119.748 216.26 115.7 218.8C93.4 232.3 62 221.2 45.4 194C29 167.1 33.4 134.4 55.1 120.6C42.5 136.8 41.9 162.8 55.4 184.9C71.9 212.1 103.4 223.2 125.7 209.7C125.922 209.602 126.125 209.467 126.3 209.3V209.3Z" fill="#A53A21"/>
<path d="M66.1 209.999C55.0069 200.274 47.5051 187.101 44.8 172.599C40.5 148.599 45.3 138.899 65 127.299C84.7 115.799 99.4 119.899 99.4 119.899C99.4 119.899 85.4 109.399 62.5 113.299C39.6 117.099 16.3 138.899 21.1 171.699C26.1 206.699 46.9 216.999 66.1 209.999Z" fill="black"/>
<path d="M86.7 147.299C84 149.199 87.8 159.299 96 166.799C104.2 174.299 112.1 170.399 112.3 162.999C112.5 155.399 96 140.699 86.7 147.299Z" fill="#A53A21"/>
<path d="M46.4 191.9C46.4 191.9 30.4 207.6 44.8 221.3C58.6 234.4 76 216.8 76 216.8C76 216.8 51.6 203.7 46.4 191.9Z" fill="#A53A21"/>
<path d="M48.3009 201C48.3009 201 39.3009 209.8 47.4009 217.6C55.2009 225 65.0009 215.1 65.0009 215.1C65.0009 215.1 51.2009 207.7 48.3009 201Z" fill="#A53A21"/>
<path d="M97.4001 118.6C97.4001 118.6 99.1001 88.3999 81.9001 76.0999C62.5001 62.2999 51.6001 82.1999 58.0001 98.4999C60.8001 105.8 63.8001 110.2 66.2001 112.8C68.3744 115.173 71.3869 116.608 74.6001 116.8L97.4001 118.6Z" fill="black"/>
<path d="M31.6001 93.0999C16.3001 105.3 29.5001 122.8 35.8001 127.5C38.3444 129.349 41.0562 130.956 43.9001 132.3C45.5764 133.093 47.4248 133.454 49.2765 133.349C51.1281 133.245 52.924 132.678 54.5001 131.7L76.1001 118C76.1001 118.1 51.9001 76.9999 31.6001 93.0999Z" fill="black"/>
<path d="M67.9001 72.7999C63.1001 73.3999 68.4001 82.5999 75.4001 83.7999C82.4001 84.9999 80.2001 71.2999 67.9001 72.7999Z" fill="#3C4E8E"/>
<path d="M37.5991 93.2999C34.7991 96.4999 42.0991 100.6 47.9991 98.5999C53.9991 96.6999 43.7991 86.2999 37.5991 93.2999Z" fill="#3C4E8E"/>
<path d="M126.6 185.5C126.075 186.551 125.324 187.474 124.4 188.2C120.698 191.308 117.785 195.249 115.9 199.7C114.1 203.6 109.5 208.2 105.2 204.9C104.661 204.511 104.189 204.039 103.8 203.5C99.3001 197.8 101 183.1 108 176.6C110.038 174.6 112.731 173.407 115.581 173.242C118.431 173.076 121.245 173.95 123.5 175.7C126.8 178.2 128.2 182.2 126.6 185.5Z" fill="#A53A21"/>
<path d="M126.6 185.5C126.075 186.551 125.324 187.474 124.4 188.2C120.698 191.308 117.785 195.249 115.9 199.7C114.1 203.6 109.5 208.2 105.2 204.9C105.2 198.6 107.5 191.2 111.9 187.2C117 182.6 123 183.2 126.6 185.5Z" fill="#FCBED7"/>
<path d="M64.7 168.2C62.682 168.204 60.681 167.831 58.8 167.1C58.1859 166.842 57.698 166.352 57.442 165.737C57.1861 165.122 57.1826 164.431 57.4323 163.813C57.682 163.195 58.1648 162.701 58.7764 162.436C59.3879 162.172 60.079 162.159 60.7 162.4C60.8 162.4 66.3 164.6 69.3 161.3C73.2 157.2 69.1 151.9 69 151.7C68.5757 151.17 68.3795 150.492 68.4545 149.817C68.5295 149.142 68.8696 148.524 69.4 148.1C69.9305 147.676 70.6078 147.479 71.2829 147.554C71.958 147.629 72.5757 147.97 73 148.5C75.4 151.6 78.5 158.9 73 164.7C71.943 165.837 70.6565 166.738 69.2257 167.341C67.795 167.944 66.2524 168.237 64.7 168.2V168.2Z" fill="black"/>
<path d="M101.9 143.1C96.8001 143.1 92.5001 139.3 92.2001 139.1C91.9493 138.877 91.7451 138.608 91.5993 138.306C91.4534 138.004 91.3687 137.676 91.3501 137.342C91.3315 137.007 91.3794 136.672 91.4909 136.356C91.6025 136.04 91.7755 135.749 92.0001 135.5C92.4615 135.014 93.0912 134.722 93.7604 134.685C94.4295 134.648 95.0876 134.868 95.6001 135.3C95.6001 135.3 100.2 139.2 103.6 137.7C105.1 137 104 133.9 103.9 133.8C103.775 133.485 103.714 133.149 103.722 132.81C103.73 132.472 103.807 132.138 103.947 131.83C104.087 131.522 104.288 131.245 104.537 131.017C104.787 130.788 105.081 130.612 105.4 130.5C106.024 130.251 106.72 130.258 107.339 130.52C107.957 130.782 108.446 131.278 108.7 131.9C110.2 135.6 109.8 140.5 105.7 142.3C104.507 142.841 103.21 143.114 101.9 143.1V143.1Z" fill="black"/>
<path d="M51.3002 162.2H51.0002C50.3319 162.115 49.7213 161.778 49.2937 161.257C48.8661 160.736 48.6537 160.072 48.7002 159.4C49.3396 154.94 51.018 150.692 53.6002 147C57.7002 140.9 61.9002 138.8 62.1002 138.7C62.4015 138.551 62.7295 138.465 63.0648 138.445C63.4002 138.425 63.7361 138.472 64.0529 138.584C64.3697 138.696 64.6609 138.87 64.9094 139.096C65.158 139.322 65.3588 139.595 65.5002 139.9C65.6487 140.201 65.7355 140.529 65.7554 140.865C65.7753 141.2 65.7279 141.536 65.6161 141.853C65.5043 142.169 65.3303 142.461 65.1043 142.709C64.8783 142.958 64.6049 143.159 64.3002 143.3C64.3002 143.3 61.1002 145 57.8002 149.8C55.7333 152.828 54.3669 156.278 53.8002 159.9C53.7485 160.527 53.4626 161.112 52.9994 161.538C52.5362 161.964 51.9296 162.201 51.3002 162.2V162.2Z" fill="black"/>
<path d="M87.9001 132.598C87.5219 132.598 87.148 132.518 86.8032 132.363C86.4584 132.208 86.1505 131.981 85.9001 131.698C85.6889 131.436 85.5317 131.134 85.4375 130.811C85.3433 130.488 85.3139 130.149 85.3511 129.815C85.3882 129.48 85.4912 129.156 85.6541 128.862C85.817 128.567 86.0365 128.307 86.3001 128.098C88.3115 126.595 90.5828 125.477 93.0001 124.798C95.4679 124.07 98.0272 123.7 100.6 123.698C101.275 123.714 101.917 123.997 102.385 124.483C102.853 124.97 103.11 125.623 103.1 126.298C103.067 126.968 102.78 127.6 102.297 128.064C101.813 128.529 101.171 128.792 100.5 128.798C98.4663 128.796 96.4438 129.1 94.5001 129.698C92.7138 130.22 91.0249 131.031 89.5001 132.098C89.0246 132.412 88.4699 132.585 87.9001 132.598V132.598Z" fill="black"/>
<path d="M414.8 406.8H7.20006C6.25343 406.804 5.31539 406.62 4.44005 406.26C3.56472 405.9 2.76942 405.369 2.10004 404.7C1.43067 404.031 0.900474 403.235 0.540046 402.36C0.179618 401.485 -0.00390612 400.547 6.30313e-05 399.6V399.6C-0.00390612 398.653 0.179618 397.715 0.540046 396.84C0.900474 395.965 1.43067 395.169 2.10004 394.5C2.76942 393.831 3.56472 393.3 4.44005 392.94C5.31539 392.579 6.25343 392.396 7.20006 392.4H414.8C415.747 392.396 416.685 392.579 417.56 392.94C418.435 393.3 419.231 393.831 419.9 394.5C420.569 395.169 421.1 395.965 421.46 396.84C421.821 397.715 422.004 398.653 422 399.6V399.6C421.991 401.507 421.23 403.333 419.881 404.681C418.533 406.03 416.707 406.791 414.8 406.8Z" fill="black"/>
<path d="M414.1 406.8H66.0002C65.0535 406.804 64.1155 406.62 63.2402 406.26C62.3648 405.899 61.5695 405.369 60.9002 404.7C60.2308 404.031 59.7006 403.235 59.3402 402.36C58.9797 401.485 58.7962 400.547 58.8002 399.6V399.6C58.7962 398.653 58.9797 397.715 59.3402 396.84C59.7006 395.965 60.2308 395.169 60.9002 394.5C61.5695 393.83 62.3648 393.3 63.2402 392.94C64.1155 392.579 65.0535 392.396 66.0002 392.4H414.1C415.047 392.396 415.985 392.579 416.86 392.94C417.736 393.3 418.531 393.83 419.2 394.5C419.87 395.169 420.4 395.965 420.76 396.84C421.121 397.715 421.304 398.653 421.3 399.6V399.6C421.304 400.547 421.121 401.485 420.76 402.36C420.4 403.235 419.87 404.031 419.2 404.7C418.531 405.369 417.736 405.899 416.86 406.26C415.985 406.62 415.047 406.804 414.1 406.8V406.8Z" fill="black"/>
<path d="M366.5 345.2H180.5C179.716 345.2 178.941 345.028 178.23 344.697C177.519 344.366 176.889 343.884 176.384 343.283C175.879 342.683 175.511 341.98 175.307 341.223C175.102 340.465 175.066 339.673 175.2 338.9L195 220.2C195.206 218.943 195.853 217.801 196.824 216.976C197.794 216.152 199.027 215.7 200.3 215.7H386.3C387.084 215.7 387.859 215.872 388.57 216.203C389.281 216.534 389.911 217.016 390.416 217.617C390.921 218.217 391.289 218.92 391.493 219.677C391.698 220.434 391.734 221.227 391.6 222L371.9 340.7C371.671 341.965 371.005 343.108 370.018 343.931C369.031 344.754 367.785 345.203 366.5 345.2V345.2Z" fill="#E1ECFF"/>
<path d="M370.5 345.2H186.9C186.116 345.2 185.341 345.028 184.63 344.697C183.919 344.366 183.289 343.884 182.784 343.283C182.279 342.683 181.911 341.98 181.707 341.223C181.502 340.465 181.466 339.673 181.6 338.9L201.4 220.2C201.606 218.943 202.253 217.801 203.224 216.976C204.194 216.152 205.427 215.7 206.7 215.7H390.3C391.084 215.7 391.859 215.872 392.57 216.203C393.281 216.534 393.911 217.016 394.416 217.617C394.921 218.217 395.289 218.92 395.493 219.677C395.698 220.434 395.734 221.227 395.6 222L375.8 340.7C375.594 341.957 374.948 343.099 373.977 343.923C373.006 344.748 371.774 345.2 370.5 345.2Z" fill="black"/>
<path d="M351.099 332.5H210.899C210.298 332.503 209.704 332.375 209.158 332.124C208.611 331.874 208.126 331.508 207.736 331.051C207.345 330.594 207.059 330.058 206.898 329.479C206.736 328.9 206.702 328.293 206.799 327.7L221.899 237.1C222.06 236.127 222.56 235.242 223.31 234.601C224.06 233.961 225.013 233.606 225.999 233.6H366.099C366.7 233.597 367.294 233.725 367.841 233.975C368.387 234.226 368.872 234.592 369.263 235.049C369.653 235.506 369.939 236.042 370.101 236.621C370.262 237.2 370.296 237.807 370.199 238.4L355.099 329C354.961 329.965 354.481 330.849 353.747 331.491C353.013 332.133 352.074 332.491 351.099 332.5V332.5Z" fill="#B7D4F7"/>
<path d="M291.199 385H265.699C265.138 385.003 264.583 384.888 264.07 384.662C263.557 384.437 263.096 384.106 262.719 383.691C262.342 383.276 262.056 382.786 261.881 382.254C261.705 381.721 261.643 381.158 261.699 380.6L268.399 314.1C268.502 313.111 268.968 312.196 269.707 311.531C270.446 310.866 271.405 310.499 272.399 310.5H297.899C298.46 310.497 299.015 310.612 299.528 310.838C300.042 311.063 300.502 311.394 300.879 311.809C301.256 312.224 301.542 312.714 301.718 313.246C301.893 313.779 301.955 314.342 301.899 314.9L295.199 381.4C295.113 382.395 294.652 383.321 293.909 383.989C293.167 384.658 292.198 385.019 291.199 385V385Z" fill="#E1ECFF"/>
<path d="M292.999 385H269.599C269.241 384.997 268.888 384.92 268.561 384.776C268.234 384.631 267.94 384.422 267.696 384.16C267.453 383.898 267.266 383.589 267.146 383.252C267.026 382.915 266.976 382.557 266.999 382.2L273.999 312.8C274.058 312.157 274.36 311.562 274.843 311.134C275.326 310.707 275.954 310.48 276.599 310.5H299.999C300.357 310.503 300.71 310.58 301.037 310.724C301.364 310.868 301.658 311.078 301.902 311.34C302.145 311.602 302.333 311.911 302.452 312.248C302.572 312.585 302.622 312.943 302.599 313.3L295.599 382.7C295.509 383.33 295.199 383.907 294.722 384.328C294.246 384.75 293.635 384.988 292.999 385V385Z" fill="black"/>
<path d="M333.6 392.3H227.4C226.34 392.297 225.325 391.874 224.575 391.125C223.826 390.375 223.403 389.36 223.4 388.3V379.5C223.403 378.44 223.826 377.425 224.575 376.675C225.325 375.926 226.34 375.503 227.4 375.5H333.6C334.66 375.503 335.676 375.926 336.425 376.675C337.175 377.425 337.597 378.44 337.6 379.5V388.3C337.597 389.36 337.175 390.375 336.425 391.125C335.676 391.874 334.66 392.297 333.6 392.3Z" fill="#E1ECFF"/>
<path d="M335.8 392.3H235.9C234.788 392.293 233.724 391.849 232.938 391.063C232.151 390.276 231.707 389.212 231.7 388.1V379.7C231.707 378.588 232.151 377.524 232.938 376.737C233.724 375.951 234.788 375.507 235.9 375.5H335.8C336.912 375.507 337.977 375.951 338.763 376.737C339.549 377.524 339.994 378.588 340 379.7V388.1C339.977 389.207 339.527 390.261 338.744 391.044C337.961 391.826 336.907 392.277 335.8 392.3V392.3Z" fill="black"/>
<path d="M410.4 199.2C409.317 199.966 408.027 200.385 406.7 200.4H310.9C309.806 200.404 308.73 200.124 307.776 199.588C306.823 199.051 306.025 198.276 305.461 197.339C304.896 196.402 304.585 195.334 304.557 194.241C304.528 193.147 304.785 192.065 305.3 191.1L340.1 124.2L352.9 99.6C353.438 98.5811 354.244 97.7284 355.231 97.1336C356.217 96.5388 357.348 96.2245 358.5 96.2245C359.652 96.2245 360.782 96.5388 361.769 97.1336C362.756 97.7284 363.562 98.5811 364.1 99.6L412.3 191.1C413.024 192.45 413.231 194.018 412.881 195.509C412.532 197.001 411.649 198.313 410.4 199.2V199.2Z" fill="#FBB900"/>
<path d="M410.4 199.2C409.317 199.966 408.027 200.385 406.7 200.4H310.9C309.806 200.404 308.73 200.124 307.776 199.588C306.823 199.051 306.025 198.276 305.461 197.339C304.896 196.402 304.585 195.334 304.557 194.241C304.528 193.147 304.785 192.065 305.3 191.1L340.1 124.2L329.5 180.5C329.284 181.634 329.305 182.801 329.561 183.927C329.817 185.053 330.303 186.114 330.989 187.044C331.674 187.973 332.544 188.751 333.544 189.328C334.544 189.906 335.652 190.271 336.8 190.4L410.4 199.2Z" fill="#FBB900"/>
<path d="M354.101 164.6L349.101 128.8C349.062 128.514 349.084 128.223 349.167 127.946C349.249 127.67 349.39 127.414 349.579 127.196C349.769 126.978 350.002 126.804 350.265 126.684C350.527 126.563 350.812 126.501 351.101 126.5H365.301C365.587 126.51 365.868 126.578 366.126 126.701C366.384 126.824 366.614 126.999 366.802 127.215C366.989 127.43 367.131 127.683 367.216 127.955C367.302 128.228 367.331 128.516 367.301 128.8L362.301 164.6C362.237 165.081 361.997 165.52 361.628 165.834C361.258 166.148 360.786 166.314 360.301 166.3H356.001C355.764 166.315 355.527 166.282 355.303 166.204C355.079 166.126 354.873 166.005 354.696 165.847C354.519 165.689 354.376 165.497 354.274 165.283C354.171 165.069 354.113 164.837 354.101 164.6V164.6Z" fill="white"/>
<path d="M358.201 186.7C362.122 186.7 365.301 183.521 365.301 179.6C365.301 175.679 362.122 172.5 358.201 172.5C354.28 172.5 351.101 175.679 351.101 179.6C351.101 183.521 354.28 186.7 358.201 186.7Z" fill="white"/>
<path d="M98.6001 41.6999L100.4 45.3999C100.499 45.6368 100.665 45.8392 100.879 45.9816C101.093 46.124 101.343 46.1999 101.6 46.1999L105.6 46.7999C105.889 46.8295 106.162 46.9434 106.387 47.1274C106.611 47.3115 106.776 47.5575 106.861 47.8349C106.947 48.1122 106.949 48.4086 106.866 48.6869C106.784 48.9652 106.622 49.2132 106.4 49.3999L103.5 52.1999C103.319 52.3793 103.187 52.6023 103.117 52.8475C103.047 53.0927 103.041 53.3519 103.1 53.5999L103.8 57.5999C103.844 57.8779 103.81 58.1627 103.703 58.4227C103.595 58.6828 103.418 58.908 103.19 59.0735C102.962 59.2391 102.693 59.3385 102.413 59.3608C102.132 59.3831 101.851 59.3274 101.6 59.1999L98.0001 57.2999C97.78 57.201 97.5414 57.1499 97.3001 57.1499C97.0588 57.1499 96.8202 57.201 96.6001 57.2999L93.0001 59.1999C92.7492 59.3274 92.4679 59.3831 92.1873 59.3608C91.9067 59.3385 91.6378 59.2391 91.4102 59.0735C91.1825 58.908 91.0051 58.6828 90.8974 58.4227C90.7898 58.1627 90.7561 57.8779 90.8001 57.5999L91.5001 53.5999C91.5351 53.3516 91.5176 53.0986 91.4487 52.8575C91.3798 52.6163 91.261 52.3923 91.1001 52.1999L88.2001 49.3999C87.9988 49.2036 87.8555 48.9556 87.7861 48.6832C87.7166 48.4107 87.7236 48.1244 87.8063 47.8557C87.8889 47.5869 88.0441 47.3462 88.2547 47.16C88.4654 46.9737 88.7233 46.8491 89.0001 46.7999L93.0001 46.1999C93.486 46.0926 93.9141 45.8072 94.2001 45.3999L96.0001 41.6999C96.1157 41.4527 96.2993 41.2435 96.5296 41.0969C96.7599 40.9504 97.0271 40.8726 97.3001 40.8726C97.573 40.8726 97.8403 40.9504 98.0706 41.0969C98.3008 41.2435 98.4845 41.4527 98.6001 41.6999" fill="#FEC272"/>
<path d="M293.2 70.7C293.212 83.9829 289.43 96.9929 282.3 108.2V108.2C279.8 114 267.2 138.5 224.4 158.1C179.5 178.7 139.7 164 139.7 164C139.7 164 164.2 147.9 159.6 121C156 99.8 153.5 84.6 153.7 71.8V70.7C153.7 52.2011 161.049 34.4599 174.129 21.3793C187.21 8.29859 204.951 0.949951 223.45 0.949951C241.949 0.949951 259.69 8.29859 272.771 21.3793C285.851 34.4599 293.2 52.2011 293.2 70.7V70.7Z" fill="#FBB900"/>
<path d="M147 117C143.3 107.5 139.6 107.9 137.1 109.7C134.8 111.4 134.3 117.3 137.1 122.9C139.9 128.5 142.7 128.1 145.5 126.6C148.3 125.1 148.7 121.4 147 117Z" fill="#C7DCF9"/>
<path d="M76.5262 172.965C74.7959 168.437 73.0656 168.628 71.8965 169.486C70.8209 170.296 70.5871 173.108 71.8965 175.777C73.2059 178.446 74.5154 178.255 75.8248 177.54C77.1342 176.825 77.3212 175.062 76.5262 172.965Z" fill="#C7DCF9"/>
<path d="M76.5262 186.965C74.7959 182.437 73.0656 182.628 71.8965 183.486C70.8209 184.296 70.5871 187.108 71.8965 189.777C73.2059 192.446 74.5154 192.255 75.8248 191.54C77.1342 190.825 77.3212 189.062 76.5262 186.965Z" fill="#C7DCF9"/>
<path d="M109.526 153.965C107.796 149.437 106.066 149.628 104.897 150.486C103.821 151.296 103.587 154.108 104.897 156.777C106.206 159.446 107.515 159.255 108.825 158.54C110.134 157.825 110.321 156.062 109.526 153.965Z" fill="#C7DCF9"/>
<path d="M109.526 167.965C107.796 163.437 106.066 163.628 104.897 164.486C103.821 165.296 103.587 168.108 104.897 170.777C106.206 173.446 107.515 173.255 108.825 172.54C110.134 171.825 110.321 170.062 109.526 167.965Z" fill="#C7DCF9"/>
<path d="M270.5 138C255.1 146.2 256.5 152.5 260.1 156.3C263.5 159.9 273.6 159.5 282.5 153.7C291.4 147.9 290.3 143.2 287.2 138.7C284.1 134.2 277.6 134.1 270.5 138Z" fill="#C7DCF9"/>
<path d="M263.095 90.0952C263.101 91.4052 262.74 92.6966 262.044 93.8564C261.347 95.0163 260.337 96.0092 259.101 96.7485C251.183 101.609 242.924 106.031 234.374 109.988C228 112.945 222.471 115.23 218.017 116.91C215.037 118.047 211.669 118.122 208.628 117.118C205.586 116.114 203.114 114.11 201.736 111.534C200.95 110.06 200.531 108.456 200.507 106.829C200.527 105.453 200.812 104.09 201.352 102.797L201.659 102.058L214.868 72.7564L197.205 81.0897C194.842 82.1959 192.081 82.4567 189.503 81.8175C186.925 81.1782 184.731 79.6887 183.382 77.6623L183.152 77.2591C182.402 75.9679 182.007 74.5409 182 73.0924C181.997 71.5778 182.432 70.0871 183.264 68.7593C184.097 67.4314 185.3 66.3096 186.761 65.4982C192.367 62.3396 200.507 58.0385 210.183 53.5358C228.768 44.8664 237.983 45.9416 240.594 50.31C243.205 54.7455 228.23 91.8425 228.23 91.8425C228.23 91.8425 248.273 83.0387 250.424 82.3666C252.641 81.6301 255.095 81.6576 257.29 82.4435C259.486 83.2294 261.258 84.7151 262.25 86.6005C262.694 87.4709 262.954 88.4044 263.018 89.3559C263.075 89.599 263.101 89.847 263.095 90.0952Z" fill="#010101"/>
<path d="M220.474 67.9163C216.02 77.5265 205.499 99.6369 201.813 102.123L215.022 72.8222L197.359 81.1556C194.982 82.2867 192.192 82.5543 189.591 81.9004C186.99 81.2466 184.788 79.7238 183.459 77.6609L183.613 77.5265C185.379 78.2658 188.528 78.9378 193.212 76.9217C201.967 73.2926 211.95 68.5211 217.709 65.7657C218.065 65.6007 218.47 65.5348 218.869 65.5768C219.269 65.6188 219.644 65.7667 219.945 66.0007C220.246 66.2347 220.458 66.5436 220.552 66.886C220.647 67.2284 220.619 67.5879 220.474 67.9163V67.9163Z" fill="black"/>
<path d="M263.095 90.0952C263.101 91.4053 262.74 92.6966 262.044 93.8564C261.347 95.0163 260.337 96.0092 259.101 96.7485C251.183 101.609 242.924 106.031 234.374 109.988C228 112.945 222.471 115.23 218.016 116.91C216.257 117.585 214.343 117.894 212.424 117.812C210.505 117.731 208.634 117.261 206.958 116.439C207.635 116.323 208.302 116.165 208.955 115.969C212.411 114.961 228 107.77 243.282 100.579C253.265 95.8748 260.023 92.1113 263.018 89.5576C263.086 89.7301 263.112 89.9133 263.095 90.0952V90.0952Z" fill="black"/>
<path opacity="0.49" d="M224.39 49.6379C217.479 51.6541 213.946 55.4175 222.24 55.0143C230.534 54.6111 234.911 50.9148 233.452 49.7051C231.993 48.5627 227.539 48.6971 224.39 49.6379Z" fill="white"/>
<path opacity="0.49" d="M250.884 83.9123C246.507 85.1892 244.203 87.6086 249.502 87.3398C254.801 87.071 257.565 84.7188 256.644 83.9795C255.646 83.2403 252.881 83.3075 250.884 83.9123Z" fill="white"/>
</g>
<defs>
<clipPath id="clip0_0_1092">
<rect width="422" height="405.85" fill="white" transform="translate(0 0.949951)"/>
</clipPath>
</defs>
</svg>
