<svg width="455" height="234" viewBox="0 0 455 234" fill="none" xmlns="http://www.w3.org/2000/svg">
<g clip-path="url(#clip0_0_1621)">
<path d="M140.082 211C140.082 198.7 178.782 188.6 226.482 188.6C274.182 188.6 312.882 198.7 312.882 211.1C312.865 212.504 312.411 213.867 311.582 215C304.382 225.5 268.982 233.5 226.482 233.5C178.782 233.5 140.082 223.4 140.082 211Z" fill="#7A97F4"/>
<path d="M122.882 195.7H39.682C37.5498 195.705 35.4778 196.407 33.782 197.7L1.78205 222.8C1.45049 223.054 1.20645 223.405 1.08396 223.805C0.961472 224.204 0.966631 224.631 1.09872 225.028C1.23081 225.424 1.48325 225.769 1.82084 226.015C2.15844 226.261 2.56437 226.396 2.98205 226.4H90.882C93.1117 226.378 95.2524 225.522 96.882 224L123.782 198C123.978 197.819 124.115 197.583 124.175 197.323C124.234 197.063 124.214 196.791 124.117 196.543C124.02 196.294 123.85 196.081 123.63 195.931C123.409 195.78 123.149 195.7 122.882 195.7Z" fill="#7A97F4"/>
<path d="M452.982 195.7H369.682C367.55 195.705 365.478 196.407 363.782 197.7L331.782 222.8C331.45 223.054 331.206 223.405 331.084 223.805C330.961 224.204 330.967 224.631 331.099 225.028C331.231 225.424 331.483 225.769 331.821 226.015C332.158 226.261 332.564 226.396 332.982 226.4H420.882C423.112 226.378 425.252 225.522 426.882 224L453.782 198C453.996 197.836 454.152 197.608 454.229 197.35C454.306 197.092 454.3 196.816 454.212 196.561C454.123 196.307 453.957 196.087 453.736 195.932C453.515 195.777 453.252 195.696 452.982 195.7Z" fill="#7A97F4"/>
<path d="M140.082 206.9C140.082 194.6 178.782 184.5 226.482 184.5C274.182 184.5 312.882 194.6 312.882 207C312.865 208.404 312.411 209.767 311.582 210.9C304.382 221.4 268.982 229.4 226.482 229.4C178.782 229.4 140.082 219.3 140.082 206.9Z" fill="#FBB900"/>
<path d="M311.582 210.9C304.382 221.4 269.082 229.4 226.482 229.4C178.782 229.4 140.082 219.3 140.082 206.9C140.082 206.9 155.082 225 223.482 225C282.282 225.1 305.982 214 311.582 210.9Z" fill="#FBB900"/>
<path d="M275.682 201.7C272.382 198.1 251.582 195.3 226.482 195.3C200.282 195.3 178.882 198.3 176.982 202.1C177.882 199.9 183.882 192.3 226.482 192.3C265.682 192.3 273.982 199.1 275.682 201.7Z" fill="#FBB900"/>
<path d="M123.582 195.7L106.082 70.5C105.985 69.8553 105.659 69.2672 105.163 68.8445C104.666 68.4217 104.034 68.1928 103.382 68.2H79.782C79.3932 68.2023 79.0093 68.2873 78.6558 68.4495C78.3024 68.6116 77.9875 68.8471 77.7321 69.1404C77.4767 69.4336 77.2866 69.7778 77.1746 70.1502C77.0625 70.5226 77.0309 70.9145 77.082 71.3L82.982 118.6C83.0392 119.039 83.0016 119.486 82.8716 119.909C82.7416 120.333 82.5224 120.724 82.2286 121.056C81.9348 121.387 81.5734 121.652 81.1686 121.832C80.7638 122.012 80.3251 122.104 79.882 122.1H52.882C52.0658 122.105 51.2788 121.797 50.6833 121.239C50.0878 120.68 49.7294 119.915 49.682 119.1L47.482 70.9C47.4479 70.2042 47.1495 69.5477 46.6477 69.0645C46.1459 68.5813 45.4786 68.3078 44.782 68.3H22.682C22.3169 68.2927 21.9542 68.3609 21.6166 68.5003C21.2791 68.6397 20.974 68.8474 20.7205 69.1103C20.467 69.3732 20.2706 69.6856 20.1435 70.028C20.0164 70.3704 19.9614 70.7354 19.982 71.1L22.982 153.5C23.0426 154.761 23.5844 155.952 24.4958 156.826C25.4073 157.7 26.6191 158.192 27.882 158.2H87.982L92.682 195.9H123.582V195.7Z" fill="#273D7A"/>
<path d="M453.682 195.7L436.182 70.5C436.086 69.8553 435.759 69.2672 435.263 68.8445C434.766 68.4217 434.134 68.1928 433.482 68.2H409.882C409.493 68.2023 409.109 68.2873 408.756 68.4495C408.402 68.6116 408.088 68.8471 407.832 69.1404C407.577 69.4336 407.387 69.7778 407.275 70.1502C407.162 70.5226 407.131 70.9145 407.182 71.3L413.082 118.6C413.139 119.039 413.102 119.486 412.972 119.909C412.842 120.333 412.622 120.724 412.329 121.056C412.035 121.387 411.673 121.652 411.269 121.832C410.864 122.012 410.425 122.104 409.982 122.1H382.982C382.166 122.105 381.379 121.797 380.783 121.239C380.188 120.68 379.829 119.915 379.782 119.1L377.582 70.9C377.548 70.2042 377.25 69.5477 376.748 69.0645C376.246 68.5813 375.579 68.3078 374.882 68.3H352.882C352.517 68.2927 352.154 68.3609 351.817 68.5003C351.479 68.6397 351.174 68.8474 350.921 69.1103C350.667 69.3732 350.471 69.6856 350.343 70.028C350.216 70.3704 350.161 70.7354 350.182 71.1L353.182 153.5C353.243 154.761 353.784 155.952 354.696 156.826C355.607 157.7 356.819 158.192 358.082 158.2H418.182L422.882 195.9H453.682V195.7Z" fill="#273D7A"/>
<path d="M105.381 71.8L92.1811 221.4C92.0706 222.758 91.4545 224.026 90.4546 224.951C89.4547 225.877 88.1438 226.394 86.7811 226.4H66.981C66.2109 226.4 65.4496 226.237 64.7474 225.92C64.0451 225.604 63.4181 225.143 62.9076 224.566C62.3971 223.989 62.0149 223.311 61.7862 222.575C61.5576 221.84 61.4876 221.064 61.5811 220.3L69.8811 150.2L10.5811 151.2C9.81496 151.213 9.05548 151.056 8.35711 150.741C7.65873 150.426 7.03878 149.96 6.54171 149.377C6.04465 148.794 5.6828 148.108 5.48213 147.369C5.28146 146.629 5.24694 145.854 5.38105 145.1L5.58105 143.8L19.1811 70.9C19.3644 69.9191 19.8843 69.0328 20.6509 68.3939C21.4176 67.755 22.3831 67.4035 23.3811 67.4H42.281C42.9 67.4103 43.5095 67.5534 44.0685 67.8195C44.6274 68.0856 45.1227 68.4686 45.5208 68.9426C45.919 69.4166 46.2107 69.9706 46.3764 70.5671C46.5421 71.1635 46.5777 71.7886 46.481 72.4L38.3811 118.4C38.3044 118.834 38.3249 119.28 38.4412 119.705C38.5575 120.13 38.7666 120.525 39.0535 120.859C39.3404 121.194 39.698 121.461 40.1004 121.641C40.5029 121.821 40.9403 121.909 41.3811 121.9H69.6811L76.2811 70.8C76.4196 69.835 76.8992 68.9514 77.6329 68.3094C78.3667 67.6673 79.3061 67.3093 80.2811 67.3H101.381C101.939 67.3323 102.486 67.4744 102.989 67.7181C103.493 67.9618 103.943 68.3024 104.314 68.7204C104.686 69.1384 104.971 69.6256 105.154 70.154C105.337 70.6825 105.414 71.2418 105.381 71.8Z" fill="#FBB900"/>
<path d="M70.281 143.8L69.781 150.2L10.481 151.2C9.71495 151.213 8.95547 151.056 8.2571 150.741C7.55873 150.426 6.93877 149.96 6.44171 149.377C5.94464 148.794 5.5828 148.108 5.38213 147.369C5.18146 146.629 5.14694 145.854 5.28104 145.1L5.48104 143.8H70.281Z" fill="#FBB900"/>
<path d="M105.381 71.8L92.181 221.4C92.0706 222.758 91.4545 224.026 90.4546 224.951C89.4547 225.877 88.1437 226.394 86.781 226.4H83.781L99.481 67.4H101.381C101.937 67.4131 102.484 67.5389 102.99 67.7698C103.496 68.0006 103.95 68.3318 104.324 68.7432C104.698 69.1546 104.984 69.6377 105.166 70.1631C105.348 70.6886 105.421 71.2455 105.381 71.8Z" fill="#FBB900"/>
<path d="M38.282 118.5C38.2054 118.934 38.2259 119.38 38.3422 119.805C38.4584 120.23 38.6676 120.625 38.9545 120.959C39.2414 121.294 39.599 121.561 40.0014 121.741C40.4039 121.921 40.8413 122.009 41.282 122H35.482C34.9817 122.003 34.4866 121.897 34.0318 121.688C33.5769 121.48 33.1733 121.174 32.8492 120.793C32.5251 120.412 32.2885 119.964 32.156 119.482C32.0234 118.999 31.9982 118.493 32.082 118L40.982 67.5H42.282C42.901 67.5103 43.5105 67.6533 44.0694 67.9195C44.6284 68.1856 45.1236 68.5686 45.5218 69.0426C45.92 69.5166 46.2117 70.0706 46.3774 70.667C46.5431 71.2635 46.5787 71.8886 46.482 72.5L38.282 118.5Z" fill="#FBB900"/>
<path d="M435.381 71.8L422.181 221.4C422.071 222.758 421.455 224.026 420.455 224.951C419.455 225.877 418.144 226.394 416.781 226.4H396.981C396.211 226.4 395.45 226.237 394.747 225.92C394.045 225.604 393.418 225.143 392.908 224.566C392.397 223.989 392.015 223.311 391.786 222.575C391.558 221.84 391.488 221.064 391.581 220.3L399.881 150.2L340.581 151.2C339.815 151.213 339.055 151.056 338.357 150.741C337.659 150.426 337.039 149.96 336.542 149.377C336.045 148.794 335.683 148.108 335.482 147.369C335.281 146.629 335.247 145.854 335.381 145.1L335.581 143.8L349.181 70.9C349.364 69.9191 349.884 69.0328 350.651 68.3939C351.418 67.755 352.383 67.4035 353.381 67.4H372.281C372.9 67.4103 373.51 67.5534 374.068 67.8195C374.627 68.0856 375.123 68.4686 375.521 68.9426C375.919 69.4166 376.211 69.9706 376.376 70.5671C376.542 71.1635 376.578 71.7886 376.481 72.4L368.381 118.4C368.304 118.834 368.325 119.28 368.441 119.705C368.557 120.13 368.767 120.525 369.053 120.859C369.34 121.194 369.698 121.461 370.1 121.641C370.503 121.821 370.94 121.909 371.381 121.9H399.681L406.281 70.8C406.42 69.835 406.899 68.9514 407.633 68.3094C408.367 67.6673 409.306 67.3093 410.281 67.3H431.381C431.945 67.3147 432.5 67.4449 433.012 67.6828C433.524 67.9206 433.982 68.261 434.357 68.6828C434.732 69.1047 435.016 69.599 435.192 70.1352C435.368 70.6714 435.433 71.238 435.381 71.8Z" fill="#FBB900"/>
<path d="M400.381 143.8L399.881 150.2L340.581 151.2C339.815 151.213 339.055 151.056 338.357 150.741C337.659 150.426 337.039 149.96 336.542 149.377C336.045 148.794 335.683 148.108 335.482 147.369C335.281 146.629 335.247 145.854 335.381 145.1L335.581 143.8H400.381Z" fill="#FBB900"/>
<path d="M435.381 71.8L422.181 221.4C422.071 222.758 421.455 224.026 420.455 224.951C419.455 225.877 418.144 226.394 416.781 226.4H413.781L429.481 67.4H431.381C431.942 67.3955 432.498 67.5094 433.012 67.7344C433.526 67.9594 433.987 68.2903 434.365 68.7056C434.742 69.1209 435.028 69.6112 435.203 70.1444C435.378 70.6776 435.439 71.2418 435.381 71.8Z" fill="#FBB900"/>
<path d="M368.382 118.5C368.305 118.934 368.326 119.38 368.442 119.805C368.558 120.23 368.768 120.625 369.054 120.959C369.341 121.294 369.699 121.561 370.101 121.741C370.504 121.921 370.941 122.009 371.382 122H365.582C365.082 122.003 364.587 121.897 364.132 121.688C363.677 121.48 363.273 121.174 362.949 120.793C362.625 120.412 362.389 119.964 362.256 119.482C362.123 118.999 362.098 118.493 362.182 118L371.082 67.5H372.382C373.001 67.5103 373.611 67.6533 374.169 67.9195C374.728 68.1856 375.224 68.5686 375.622 69.0426C376.02 69.5166 376.312 70.0706 376.477 70.667C376.643 71.2635 376.679 71.8886 376.582 72.5L368.382 118.5Z" fill="#FBB900"/>
<path opacity="0.28" d="M186.983 102.297L166.483 206.297C165.383 211.897 168.983 217.197 173.883 217.197H282.483C287.283 217.197 290.883 212.097 289.983 206.697L273.183 102.697C272.483 98.4969 269.383 95.4969 265.683 95.4969H194.483C190.883 95.3969 187.783 98.2969 186.983 102.297Z" fill="#FBB900"/>
<path d="M279.581 108.8L289.481 141.7C289.52 141.866 289.595 142.022 289.701 142.156C289.807 142.29 289.941 142.399 290.094 142.475C290.246 142.551 290.414 142.593 290.585 142.597C290.755 142.602 290.925 142.568 291.081 142.5C291.351 142.395 291.572 142.194 291.701 141.935C291.831 141.676 291.859 141.379 291.781 141.1L285.281 107.4C285.178 106.975 284.985 106.577 284.714 106.234C284.444 105.89 284.102 105.609 283.713 105.41C283.323 105.21 282.896 105.097 282.459 105.078C282.022 105.059 281.586 105.135 281.181 105.3C280.537 105.592 280.02 106.107 279.726 106.75C279.432 107.394 279.38 108.122 279.581 108.8Z" fill="#FEC272"/>
<path d="M260.881 120.699L267.281 146.099C267.304 146.206 267.349 146.307 267.413 146.395C267.476 146.484 267.558 146.559 267.651 146.615C267.745 146.672 267.849 146.708 267.957 146.722C268.066 146.737 268.176 146.729 268.281 146.699C268.374 146.674 268.461 146.631 268.537 146.572C268.612 146.513 268.676 146.439 268.722 146.355C268.769 146.271 268.798 146.179 268.808 146.083C268.818 145.987 268.809 145.891 268.781 145.799L264.681 119.899C264.631 119.607 264.516 119.33 264.344 119.088C264.173 118.846 263.949 118.646 263.69 118.502C263.431 118.358 263.143 118.274 262.847 118.257C262.552 118.239 262.256 118.287 261.981 118.399C261.569 118.606 261.237 118.945 261.038 119.361C260.839 119.777 260.784 120.248 260.881 120.699Z" fill="#FEC272"/>
<path d="M177.481 112L169.181 137.3C169.151 137.412 169.097 137.515 169.022 137.603C168.948 137.692 168.854 137.762 168.749 137.81C168.644 137.858 168.53 137.882 168.414 137.88C168.298 137.878 168.185 137.851 168.081 137.8C167.894 137.718 167.742 137.573 167.651 137.39C167.559 137.208 167.535 136.999 167.581 136.8L173.581 110.9C173.657 110.614 173.794 110.348 173.981 110.118C174.168 109.889 174.401 109.702 174.666 109.57C174.931 109.438 175.22 109.363 175.516 109.351C175.812 109.339 176.107 109.39 176.381 109.5C176.84 109.708 177.206 110.079 177.409 110.54C177.612 111.001 177.637 111.521 177.481 112Z" fill="#FEC272"/>
<path d="M193.981 119.799L183.181 166.799C183.158 166.906 183.113 167.007 183.049 167.096C182.986 167.184 182.905 167.259 182.811 167.315C182.717 167.372 182.613 167.408 182.505 167.422C182.396 167.437 182.286 167.429 182.181 167.399C182.088 167.374 182.001 167.331 181.925 167.272C181.85 167.213 181.786 167.139 181.74 167.055C181.693 166.971 181.664 166.879 181.654 166.783C181.644 166.688 181.653 166.591 181.681 166.499L190.181 118.999C190.231 118.707 190.346 118.43 190.518 118.188C190.689 117.947 190.913 117.746 191.172 117.602C191.431 117.459 191.719 117.375 192.015 117.357C192.31 117.339 192.607 117.387 192.881 117.499C193.329 117.663 193.694 117.995 193.9 118.425C194.106 118.855 194.135 119.348 193.981 119.799Z" fill="#FEC272"/>
<path d="M216.881 125.296L211.681 159.396C211.667 159.507 211.628 159.614 211.567 159.708C211.505 159.803 211.423 159.882 211.327 159.939C211.231 159.997 211.122 160.032 211.011 160.042C210.899 160.052 210.786 160.036 210.681 159.996C210.495 159.935 210.334 159.813 210.225 159.65C210.117 159.487 210.066 159.292 210.081 159.096L212.881 124.696C212.925 124.409 213.03 124.134 213.191 123.892C213.351 123.65 213.563 123.446 213.81 123.293C214.058 123.141 214.335 123.044 214.624 123.01C214.912 122.976 215.205 123.006 215.481 123.096C215.718 123.148 215.941 123.247 216.14 123.386C216.338 123.525 216.507 123.701 216.637 123.906C216.767 124.11 216.856 124.338 216.898 124.577C216.939 124.815 216.934 125.06 216.881 125.296Z" fill="#FEC272"/>
<path d="M243.681 124.6L244.981 178.7C244.979 178.813 244.954 178.925 244.907 179.028C244.86 179.131 244.792 179.223 244.707 179.298C244.622 179.373 244.523 179.43 244.415 179.465C244.307 179.5 244.194 179.512 244.081 179.5C243.891 179.466 243.718 179.369 243.59 179.223C243.463 179.078 243.389 178.893 243.381 178.7L239.681 124.6C239.673 124.309 239.73 124.019 239.847 123.752C239.964 123.486 240.139 123.248 240.359 123.057C240.579 122.866 240.838 122.725 241.119 122.646C241.399 122.567 241.694 122.552 241.981 122.6C242.448 122.693 242.87 122.942 243.179 123.305C243.487 123.668 243.664 124.124 243.681 124.6Z" fill="#FEC272"/>
<path d="M139.782 75.5C138.775 74.3198 137.934 73.0077 137.282 71.6L134.982 56.2L140.282 61.1L139.782 75.5Z" fill="#738DE0"/>
<path d="M288.982 80.7C286.175 86.0292 282.641 90.9428 278.482 95.3C269.482 104.9 254.282 115.8 231.682 115.8C215.782 115.8 203.982 110.5 195.582 104.1C187.676 98.1195 181.358 90.2907 177.182 81.3L288.982 80.7Z" fill="#273D7A"/>
<path d="M288.982 80.7C286.175 86.0292 282.641 90.9428 278.482 95.3C269.129 98.8018 259.395 101.185 249.482 102.4C226.282 105.5 208.182 105.3 195.582 104.1C187.676 98.1195 181.358 90.2907 177.182 81.3L288.982 80.7Z" fill="#FBB900"/>
<path d="M324.182 55.6C323.646 60.3551 322.777 65.0666 321.582 69.7C321.243 70.9772 320.703 72.1924 319.982 73.3C317.882 76.7 313.882 80.4 307.382 83.9C306.282 84.5 304.982 85.1 303.682 85.7C302.682 86.2 301.682 86.6 300.582 87.1C299.082 87.7 297.582 88.3 295.982 88.9C289.446 91.1263 282.763 92.8972 275.982 94.2C275.382 94.3 274.882 94.4 274.282 94.5C272.782 94.8 270.982 95 269.082 95.2C261.082 96.1 250.482 96.7 239.182 96.9C237.082 96.9 234.982 97 232.882 97C222.182 97.1 211.382 96.8 201.982 96.3C199.982 96.2 197.982 96.1 196.182 95.9C191.553 95.606 186.944 95.0383 182.382 94.2C177.282 93.2 172.682 92.1 168.582 90.9C166.882 90.4 165.282 89.9 163.682 89.4C151.282 85.3 143.782 80.3 139.882 75.7C139.319 75.083 138.817 74.4132 138.382 73.7C137.972 73.1104 137.636 72.4722 137.382 71.8C137.061 71.1675 136.825 70.4949 136.682 69.8C135.829 66.3771 135.194 62.9035 134.782 59.4C134.382 56.1 134.282 53.9 134.282 53.9L229.282 61L324.282 55.7L324.182 55.6Z" fill="#99ADF9"/>
<path d="M324.082 55.4C323.91 56.4244 323.42 57.3689 322.682 58.1C320.182 61 314.182 65.3 303.982 69.2C302.682 69.7 301.282 70.2 299.782 70.7C299.082 70.9 298.382 71.2 297.682 71.4C296.182 71.9 294.582 72.4 292.882 72.8C286.347 74.6316 279.7 76.0346 272.982 77C271.182 77.3 269.282 77.6 267.282 77.8C257.893 78.9893 248.445 79.6569 238.982 79.8C236.982 79.8 234.882 79.9 232.782 79.9H232.682C221.982 79.9 212.082 79.4 203.182 78.6C201.182 78.4 199.182 78.2 197.282 78C188.531 77.0365 179.848 75.5336 171.282 73.5C169.582 73.1 167.882 72.6 166.282 72.2C151.382 68.1 141.582 63 137.082 58.8C136.295 58.0804 135.591 57.2754 134.982 56.4C134.437 55.6762 134.124 54.8049 134.082 53.9C134.082 46.8 162.082 31.7 233.182 31.7C304.282 31.6 324.082 50.5 324.082 55.4Z" fill="#273D7A"/>
<path d="M192.182 39.8L140.182 61.1C138.198 59.719 136.414 58.0701 134.882 56.2L190.482 38.9L192.182 39.8Z" fill="#FBB900"/>
<path d="M324.082 55.5C323.882 56.4858 323.395 57.3904 322.682 58.1L269.282 39.8L270.982 39L324.082 55.5Z" fill="#FBB900"/>
<path d="M200.982 45.3L171.282 73.4C169.582 73 167.882 72.5 166.282 72.1L199.182 45.2L200.982 45.3Z" fill="#FBB900"/>
<path d="M217.282 48.6L203.182 78.6C201.182 78.4 199.182 78.2 197.282 78L215.482 48.5L217.282 48.6Z" fill="#FBB900"/>
<path d="M273.082 77.1C271.282 77.4 269.282 77.7 267.382 77.9L253.582 48.6L255.482 48.5L273.082 77.1Z" fill="#FBB900"/>
<path d="M238.982 79.9C236.982 79.9 234.882 80 232.782 80H232.682L235.082 50.5L236.982 50.4L238.982 79.9Z" fill="#FBB900"/>
<path d="M303.882 69.2C302.582 69.7 301.182 70.2 299.682 70.7L263.782 45.3L265.682 45.2L303.882 69.2Z" fill="#FBB900"/>
<path d="M239.082 96.6999C236.982 96.6999 234.882 96.7999 232.782 96.7999V79.8999L238.982 79.7999L239.082 96.6999Z" fill="#738DE0"/>
<path d="M274.082 94.3C272.482 94.6 270.782 94.8 268.882 95L267.282 77.8L272.982 77L274.082 94.3Z" fill="#738DE0"/>
<path d="M307.282 83.8C306.182 84.4 304.882 85 303.582 85.6L299.782 70.6L303.882 69.2L307.282 83.8Z" fill="#738DE0"/>
<path d="M203.182 78.6L201.982 96.1C199.982 96 197.982 95.9 196.182 95.7L197.382 78L203.182 78.6Z" fill="#738DE0"/>
<path d="M171.282 73.4L168.482 90.7C166.782 90.2 165.182 89.7 163.582 89.2L166.182 72.1L171.282 73.4Z" fill="#738DE0"/>
<path d="M140.282 61.2999L138.282 73.5999C137.872 73.0103 137.536 72.3721 137.282 71.6999C136.961 71.0674 136.725 70.3948 136.582 69.6999C135.729 66.277 135.094 62.8034 134.682 59.2999L134.982 56.2999C134.982 56.2999 136.682 58.2999 137.382 58.9999C137.982 59.5999 140.282 61.2999 140.282 61.2999Z" fill="#738DE0"/>
<path d="M228.482 62.4C257.919 62.4 281.782 55.6395 281.782 47.3C281.782 38.9605 257.919 32.2 228.482 32.2C199.045 32.2 175.182 38.9605 175.182 47.3C175.182 55.6395 199.045 62.4 228.482 62.4Z" fill="#FBB900"/>
<path d="M277.182 44.9C277.182 44.9 273.282 49.3 263.682 53.1C256.582 55.9 246.382 58.3 232.382 58.3C225.673 58.3443 218.975 57.7415 212.382 56.5C193.682 52.9 185.582 45.1 185.582 45.1C185.582 45.1 189.682 14.7 215.282 4.4C221.205 2.07963 227.521 0.925149 233.882 1C269.082 1 277.182 44.9 277.182 44.9Z" fill="#99ADF9"/>
<path d="M212.382 56.5C193.682 52.9 185.582 45.1 185.582 45.1C185.582 45.1 189.682 14.7 215.282 4.40002C210.282 8.60002 205.382 17 204.582 30.7C203.782 40.9 206.182 49.4 212.382 56.5Z" fill="#7A97F4"/>
<path d="M277.182 44.9C277.182 44.9 273.282 49.3 263.682 53.1C262.681 49.477 261.411 45.9338 259.882 42.5C259.882 42.5 250.482 44.5 246.282 35.6C242.082 26.7 252.182 20.3 252.182 20.3C252.182 20.3 249.782 12.6 237.382 7.6C224.982 2.6 215.082 4.4 215.082 4.4C221.005 2.07963 227.321 0.925149 233.682 1C269.082 1 277.182 44.9 277.182 44.9Z" fill="#C2D1FF"/>
<path d="M236.882 26.1C238.373 26.1 239.582 24.936 239.582 23.5C239.582 22.0641 238.373 20.9 236.882 20.9C235.391 20.9 234.182 22.0641 234.182 23.5C234.182 24.936 235.391 26.1 236.882 26.1Z" fill="#C2D1FF"/>
<path d="M227.482 28.6C228.642 28.6 229.582 27.7045 229.582 26.6C229.582 25.4954 228.642 24.6 227.482 24.6C226.322 24.6 225.382 25.4954 225.382 26.6C225.382 27.7045 226.322 28.6 227.482 28.6Z" fill="#C2D1FF"/>
<path d="M233.782 42.1C236.046 42.1 237.882 40.3091 237.882 38.1C237.882 35.8908 236.046 34.1 233.782 34.1C231.518 34.1 229.682 35.8908 229.682 38.1C229.682 40.3091 231.518 42.1 233.782 42.1Z" fill="#C2D1FF"/>
</g>
<defs>
<clipPath id="clip0_0_1621">
<rect width="453.287" height="232.503" fill="white" transform="translate(0.995728 0.996582)"/>
</clipPath>
</defs>
</svg>
